<svg width="100%" height="100%" viewBox="0 0 454 116" version="1.1" xmlns="http://www.w3.org/2000/svg" xmlns:xlink="http://www.w3.org/1999/xlink" xml:space="preserve" xmlns:serif="http://www.serif.com/" fill-rule="evenodd" clip-rule="evenodd" stroke-linejoin="round" stroke-miterlimit="2">
    <path d="M19,0.7L19,54.6L19.2,54.6L19.1,56.8C19.181,78.029 36.671,95.451 57.9,95.451C59.875,95.451 61.848,95.3 63.8,95L55.2,103.7C41.5,117.3 26.2,113.3 21.2,94.6L2.9,26.6C-1.3,11.2 5.8,0.7 19.1,0.7L19,0.7ZM64.8,73.6C62.572,74.483 60.196,74.937 57.8,74.937C47.376,74.937 38.8,66.36 38.8,55.937C38.8,55.891 38.8,55.846 38.8,55.8C38.875,45.429 47.428,36.937 57.8,36.937C68.223,36.937 76.8,45.514 76.8,55.937C76.8,63.711 72.028,70.735 64.8,73.6ZM37.8,4.6L95.8,20C114.4,25 118.5,40.3 104.8,54L96.3,62.6C96.59,60.68 96.736,58.742 96.736,56.8C96.736,35.515 79.221,18 57.936,18C57.924,18 57.912,18 57.9,18C49.3,18 44.3,18.9 37.9,23.6L37.9,4.6L37.8,4.6Z" fill="url(#_Linear1)" fill-rule="nonzero"/>
    <g>
        <path d="M170.8,80C178.4,80 183.1,74.8 183.1,65.6C183.1,56.3 178.3,50.9 171.1,50.9C168.447,50.827 165.844,51.636 163.7,53.2L163.7,78.2C165.865,79.419 168.316,80.041 170.8,80M170.8,92.6C164.752,92.793 158.756,91.415 153.4,88.6C148.1,85.6 148.1,81.7 148.1,77.7L148.1,18.8C148.1,14.6 150.6,12.5 155.9,12.5C161.1,12.5 163.7,14.6 163.7,18.8L163.7,41.2C166.7,39.2 170.5,38.3 174.9,38.3C189.1,38.3 199.1,47.8 199.1,64.6C199.1,81.6 188.9,92.6 170.7,92.6M217.2,75.8C217.2,78.4 219,80.5 223.4,80.5C226.4,80.5 229.4,79.5 232.2,77.3L232.2,67.8C222.2,69.1 217.2,71.2 217.2,75.8M224.2,50.9C221.3,50.9 217.9,51.6 214.4,53.2C212.4,54.2 210.9,54.9 209.5,54.9C205.9,54.9 203.5,50.6 203.5,47.5C203.5,45.3 204.9,43.7 207.8,42C212.7,39.4 218.8,38 225.5,38C233.9,38 240.1,40.2 243.6,44.3C246.1,47.2 247.2,51.6 247.2,57.3L247.2,86C247.2,90.4 245.2,92.4 239.6,92.4C235,92.4 233.1,91 233.1,87.6L233.1,86.7C229.7,90.6 224.9,92.4 218.6,92.4C207.9,92.4 201.4,86.6 201.4,77.3C201.4,66.8 209.8,60.8 232.2,58.8L232.2,58C232.2,53.6 230.2,51 224.2,51M281,51C273.4,51 268.8,56 268.8,65.1C268.8,74.6 273.5,79.8 280.8,79.8C283.6,79.8 286,79 288.1,77.4L288.1,52.9C285.976,51.562 283.51,50.867 281,50.9M278.9,38.3C282.6,38.3 285.9,38.9 288.1,40.3L288.1,18.8C288.1,14.6 290.7,12.5 295.9,12.5C301.2,12.5 303.7,14.6 303.7,18.8L303.7,86C303.7,90.3 301.1,92.3 296,92.3C291.1,92.3 289.2,90.6 289.2,87.4L289.2,86.7C286.2,90.5 281.6,92.4 275.8,92.4C262.9,92.4 252.8,82.8 252.8,66C252.8,49 263.2,38.3 278.9,38.3M328.1,86C328.1,90.2 325.6,92.3 320.3,92.3C315.1,92.3 312.5,90.3 312.5,86L312.5,44.6C312.5,40.4 314.9,38.3 320.1,38.3C325.4,38.3 327.4,41 327.3,44.6L327.3,47C329.8,42 334.5,38.3 340.7,38.3C345.2,38.3 347.1,40.4 347.1,45.3C347.1,50.8 344.7,52.3 340.1,52.5C333.6,52.8 330.5,54 328.1,57.7L328.1,86ZM363.2,75.8C363.2,78.4 364.9,80.5 369.4,80.5C372.4,80.5 375.4,79.5 378.1,77.3L378.1,67.8C368.1,69.1 363.1,71.2 363.1,75.8M370.1,50.9C367.3,50.9 363.9,51.6 360.4,53.2C358.4,54.2 356.9,54.9 355.4,54.9C351.9,54.9 349.5,50.6 349.5,47.5C349.5,45.3 350.8,43.7 353.7,42C358.7,39.4 364.8,38 371.5,38C379.9,38 386.1,40.2 389.5,44.3C392,47.2 393.2,51.6 393.2,57.3L393.2,86C393.2,90.4 391.1,92.4 385.6,92.4C380.9,92.4 379.1,91 379.1,87.6L379.1,86.7C375.7,90.6 370.9,92.4 364.6,92.4C353.9,92.4 347.3,86.6 347.3,77.3C347.3,66.8 355.7,60.8 378.1,58.8L378.1,58C378.1,53.6 376.1,51 370.1,51M424.2,79.7C431.9,79.7 436.6,74.7 436.6,65.5C436.6,56 431.8,50.8 424.6,50.8C421.7,50.8 419.3,51.6 417.2,53.2L417.2,78C419.2,79.2 421.6,79.8 424.2,79.8M417.2,108.2C417.2,112.4 414.6,114.5 409.4,114.5C404.1,114.5 401.6,112.4 401.6,108.2L401.6,44.6C401.6,40.3 404.1,38.3 409.3,38.3C414,38.3 416.1,40.2 416.1,43.3L416.1,43.9C419.1,40.2 423.7,38.3 429.6,38.3C442.4,38.3 452.6,47.9 452.6,64.7C452.6,81.8 442.2,92.4 426.4,92.4C422.7,92.4 419.4,91.7 417.2,90.4L417.2,108.2Z" fill="#ffffff" fill-rule="nonzero"/>
    </g>
    <defs>
        <linearGradient id="_Linear1" x1="0" y1="0" x2="1" y2="0" gradientUnits="userSpaceOnUse" gradientTransform="matrix(100.384,-27.0238,27.0238,100.384,12,60.7)"><stop offset="0" stop-color="rgb(145,38,143)" stop-opacity="1"/><stop offset="0.1" stop-color="rgb(145,38,143)" stop-opacity="1"/><stop offset="0.9" stop-color="rgb(238,40,124)" stop-opacity="1"/><stop offset="1" stop-color="rgb(238,40,124)" stop-opacity="1"/></linearGradient>
    </defs>
</svg>
